<?xml version="1.0" ?><svg height="48" viewBox="0 0 48 48" width="48" xmlns="http://www.w3.org/2000/svg"><defs><style>.cls-1{fill:none;stroke:#000;stroke-linecap:round;stroke-linejoin:round;stroke-width:2px;}</style></defs><title/><g data-name="7-Line" id="_7-Line"><path class="cls-1" d="M47,21C47,9.954,36.7,1,24,1S1,9.954,1,21,11.3,41,24,41a26.694,26.694,0,0,0,3-.175V47S47,36,47,21Z"/><polyline class="cls-1" points="38 16 33 16 33 26 38 26"/><line class="cls-1" x1="33" x2="38" y1="21" y2="21"/><polyline class="cls-1" points="10 16 10 26 15 26"/><line class="cls-1" x1="19" x2="19" y1="16" y2="26"/><polyline class="cls-1" points="23 26 23 16 29 26 29 16"/></g></svg>