<?xml version="1.0" encoding="utf-8"?>
<!-- Generator: Adobe Illustrator 23.1.0, SVG Export Plug-In . SVG Version: 6.00 Build 0)  -->
<svg version="1.1" id="Layer_1" xmlns="http://www.w3.org/2000/svg" xmlns:xlink="http://www.w3.org/1999/xlink" x="0px" y="0px"
	 viewBox="0 0 64 64" style="enable-background:new 0 0 64 64;" xml:space="preserve">
<title></title>
<path d="M34.3,18.7c0-3.5,0.8-6.1,2.4-8c1.6-1.9,3.6-2.8,6-2.8c1.5,0,2.9,0.4,4.2,1.3c1.3,0.9,2.3,2.1,3,3.6
	c0.7,1.6,1.1,3.5,1.1,5.7c0,3-0.7,5.5-2.2,7.4c-1.6,2.1-3.6,3.1-6.2,3.1s-4.7-1-6.2-3.2C35,23.9,34.3,21.5,34.3,18.7z"/>
<path d="M12.4,45.6c0-3.5,0.8-6.1,2.4-8s3.6-2.8,6-2.8c1.5,0,3,0.4,4.2,1.3s2.3,2.1,3,3.6s1.1,3.5,1.1,5.7c0,3-0.7,5.5-2.2,7.4
	c-1.6,2.1-3.6,3.1-6.2,3.1s-4.7-1-6.2-3.2C13.1,50.7,12.4,48.3,12.4,45.6z"/>
<path d="M13.4,30.3V6.7h7.3c1.5,0,2.6,0.2,3.5,0.7s1.6,1.2,2.1,2.1c0.5,1,0.8,2,0.8,3.2c0,1.1-0.2,2.1-0.7,2.9s-1.1,1.6-2,2.1
	c1.1,0.4,2,1.1,2.7,2.1c0.6,1,1,2.2,1,3.6s-0.3,2.7-0.9,3.8c-0.6,1.1-1.4,1.9-2.3,2.4c-1,0.5-2.3,0.7-4,0.7H13.4z M16,16.6h4.2
	c1.1,0,1.9-0.1,2.3-0.2c0.7-0.2,1.2-0.6,1.5-1.1s0.5-1.3,0.5-2.2c0-0.8-0.2-1.6-0.5-2.1s-0.8-1-1.3-1.2s-1.5-0.3-2.9-0.3h-3.9
	L16,16.6L16,16.6z M16,27.6h4.8c1.1,0,1.9-0.1,2.4-0.3c0.7-0.3,1.3-0.7,1.7-1.4c0.4-0.6,0.6-1.4,0.6-2.4c0-0.9-0.2-1.6-0.5-2.3
	s-0.9-1.1-1.5-1.4s-1.6-0.4-2.9-0.4h-4.5v8.2H16z"/>
<path d="M34.6,57.1V33.5h2.6v11.7l9.6-11.7h3.5l-8.1,9.6l8.5,14h-3.4l-6.9-11.9L37.2,49v8.2L34.6,57.1L34.6,57.1z"/>
</svg>
