<?xml version="1.0" encoding="utf-8"?>
<!-- Generator: Adobe Illustrator 23.1.0, SVG Export Plug-In . SVG Version: 6.00 Build 0)  -->
<svg version="1.1" id="Layer_1" xmlns="http://www.w3.org/2000/svg" xmlns:xlink="http://www.w3.org/1999/xlink" x="0px" y="0px"
	 viewBox="0 0 64 64" style="enable-background:new 0 0 64 64;" xml:space="preserve">
<title></title>
<g>
	<g>
		<path d="M32.5,19c0-4,0.9-7.1,2.7-9.3c1.8-2.2,4-3.2,6.6-3.2C43.5,6.5,45,7,46.5,8c1.4,1,2.5,2.4,3.3,4.2c0.8,1.8,1.2,4,1.2,6.6
			c0,3.5-0.8,6.4-2.4,8.6c-1.8,2.4-4,3.6-6.9,3.6c-2.9,0-5.2-1.2-6.9-3.7C33.3,25,32.5,22.2,32.5,19z M35.1,19.1
			c0,2.9,0.6,5.2,1.9,6.8s2.8,2.4,4.7,2.4c1.9,0,3.5-0.8,4.7-2.4c1.3-1.6,1.9-4,1.9-7.2c0-2-0.3-3.8-1-5.5c-0.5-1.2-1.3-2.2-2.3-2.9
			S43,9.2,41.8,9.2c-1.9,0-3.5,0.8-4.8,2.4C35.8,13.2,35.1,15.7,35.1,19.1z"/>
	</g>
	<g>
		<path d="M11.8,45.6c0-4,0.9-7.1,2.7-9.3c1.8-2.2,4-3.2,6.6-3.2c1.7,0,3.3,0.5,4.7,1.5c1.4,1,2.5,2.4,3.3,4.2s1.2,4,1.2,6.6
			c0,3.5-0.8,6.4-2.4,8.6c-1.8,2.4-4,3.6-6.9,3.6c-2.9,0-5.2-1.2-6.9-3.7C12.6,51.5,11.8,48.8,11.8,45.6z M14.4,45.6
			c0,2.9,0.6,5.2,1.9,6.8c1.3,1.6,2.8,2.4,4.7,2.4c1.9,0,3.5-0.8,4.7-2.4c1.3-1.6,1.9-4,1.9-7.2c0-2-0.3-3.8-1-5.5
			c-0.5-1.2-1.3-2.2-2.3-2.9c-1-0.7-2.1-1.1-3.3-1.1c-1.9,0-3.5,0.8-4.8,2.4C15.1,39.8,14.4,42.3,14.4,45.6z"/>
	</g>
	<g>
		<path d="M13.9,30.5V6.9h7.3c1.5,0,2.6,0.2,3.5,0.7c0.9,0.5,1.6,1.2,2.1,2.1c0.5,1,0.8,2,0.8,3.2c0,1.1-0.2,2.1-0.7,2.9
			s-1.1,1.6-2,2.1c1.1,0.4,2,1.1,2.7,2.1c0.6,1,1,2.2,1,3.6c0,1.4-0.3,2.7-0.9,3.8c-0.6,1.1-1.4,1.9-2.3,2.4c-1,0.5-2.3,0.7-4,0.7
			H13.9z M16.5,16.8h4.2c1.1,0,1.9-0.1,2.3-0.2c0.7-0.2,1.2-0.6,1.5-1.1s0.5-1.3,0.5-2.2c0-0.8-0.2-1.6-0.5-2.1s-0.8-1-1.3-1.2
			c-0.5-0.2-1.5-0.3-2.9-0.3h-3.9V16.8z M16.5,27.8h4.8c1.1,0,1.9-0.1,2.4-0.3c0.7-0.3,1.3-0.7,1.7-1.4c0.4-0.6,0.6-1.4,0.6-2.4
			c0-0.9-0.2-1.6-0.5-2.3s-0.9-1.1-1.5-1.4c-0.6-0.3-1.6-0.4-2.9-0.4h-4.5V27.8z"/>
	</g>
	<g>
		<path d="M34.6,57.1V33.5h2.6v11.7l9.6-11.7h3.5l-8.1,9.6l8.5,14h-3.4l-6.9-11.9l-3.2,3.8v8.2H34.6z"/>
	</g>
</g>
</svg>
