<?xml version="1.0" encoding="utf-8"?>
<!-- Generator: Adobe Illustrator 23.1.0, SVG Export Plug-In . SVG Version: 6.00 Build 0)  -->
<svg version="1.1" id="圖層_1" xmlns="http://www.w3.org/2000/svg" xmlns:xlink="http://www.w3.org/1999/xlink" x="0px" y="0px"
	 viewBox="0 0 283.5 50.5" style="enable-background:new 0 0 283.5 50.5;" xml:space="preserve">
<g>
	<path d="M4.2,4.8h16.6c3.3,0,5.7,0.1,7.3,0.4c1.6,0.3,3.1,0.8,4.3,1.7c1.3,0.9,2.3,2,3.2,3.5c0.8,1.4,1.3,3.1,1.3,4.9
		c0,1.9-0.5,3.7-1.6,5.3s-2.5,2.8-4.3,3.7c2.5,0.7,4.5,2,5.8,3.8c1.4,1.8,2,3.9,2,6.3c0,1.9-0.4,3.7-1.3,5.5
		c-0.9,1.8-2.1,3.2-3.6,4.3c-1.5,1.1-3.4,1.7-5.6,2c-1.4,0.2-4.8,0.2-10.1,0.3H4.2V4.8z M12.6,11.7v9.6h5.5c3.3,0,5.3,0,6.1-0.1
		c1.4-0.2,2.6-0.7,3.4-1.5c0.8-0.8,1.2-1.9,1.2-3.2c0-1.3-0.4-2.3-1.1-3.1C27,12.5,26,12,24.6,11.8c-0.8-0.1-3.2-0.1-7.2-0.1H12.6z
		 M12.6,28.2v11.1h7.8c3,0,4.9-0.1,5.7-0.3c1.2-0.2,2.3-0.8,3-1.7c0.8-0.9,1.2-2.1,1.2-3.5c0-1.2-0.3-2.3-0.9-3.2
		c-0.6-0.9-1.5-1.5-2.6-1.9c-1.1-0.4-3.6-0.6-7.4-0.6H12.6z"/>
	<path d="M44.2,30.8c0-2.6,0.7-5.2,2-7.7c1.3-2.5,3.1-4.4,5.5-5.7s5.1-2,8-2c4.5,0,8.3,1.5,11.2,4.4c2.9,3,4.4,6.7,4.4,11.2
		c0,4.5-1.5,8.3-4.4,11.3c-2.9,3-6.6,4.5-11.1,4.5c-2.8,0-5.4-0.6-7.9-1.9c-2.5-1.2-4.4-3.1-5.7-5.5S44.2,34.2,44.2,30.8z
		 M52.3,31.2c0,3,0.7,5.3,2.1,6.8c1.4,1.6,3.2,2.4,5.2,2.4c2.1,0,3.8-0.8,5.2-2.4c1.4-1.6,2.1-3.9,2.1-6.9c0-2.9-0.7-5.2-2.1-6.8
		c-1.4-1.6-3.1-2.4-5.2-2.4c-2.1,0-3.8,0.8-5.2,2.4C53,26,52.3,28.2,52.3,31.2z"/>
	<path d="M79.6,30.8c0-2.6,0.7-5.2,2-7.7c1.3-2.5,3.1-4.4,5.5-5.7s5.1-2,8-2c4.5,0,8.3,1.5,11.2,4.4c2.9,3,4.4,6.7,4.4,11.2
		c0,4.5-1.5,8.3-4.4,11.3c-2.9,3-6.6,4.5-11.1,4.5c-2.8,0-5.4-0.6-7.9-1.9c-2.5-1.2-4.4-3.1-5.7-5.5S79.6,34.2,79.6,30.8z
		 M87.7,31.2c0,3,0.7,5.3,2.1,6.8c1.4,1.6,3.2,2.4,5.2,2.4c2.1,0,3.8-0.8,5.2-2.4c1.4-1.6,2.1-3.9,2.1-6.9c0-2.9-0.7-5.2-2.1-6.8
		c-1.4-1.6-3.1-2.4-5.2-2.4c-2.1,0-3.8,0.8-5.2,2.4C88.4,26,87.7,28.2,87.7,31.2z"/>
	<path d="M116.5,46.2V4.8h8v22l9.3-10.6h9.8l-10.3,11l11,19.1h-8.6l-7.6-13.5l-3.7,3.9v9.6H116.5z"/>
	<path d="M149.3,46.2V5.1h8.4v34.2h20.8v7H149.3z"/>
	<path d="M190.4,25.4l-7.2-1.3c0.8-2.9,2.2-5.1,4.2-6.5c2-1.4,4.9-2.1,8.8-2.1c3.5,0,6.2,0.4,7.9,1.3c1.7,0.8,3,1.9,3.7,3.2
		c0.7,1.3,1.1,3.7,1.1,7.1l-0.1,9.3c0,2.6,0.1,4.6,0.4,5.8c0.3,1.3,0.7,2.6,1.4,4h-7.9c-0.2-0.5-0.5-1.3-0.8-2.3
		c-0.1-0.5-0.2-0.8-0.3-0.9c-1.4,1.3-2.8,2.3-4.4,3c-1.5,0.7-3.2,1-5,1c-3.1,0-5.5-0.8-7.3-2.5c-1.8-1.7-2.7-3.8-2.7-6.4
		c0-1.7,0.4-3.2,1.2-4.5c0.8-1.3,1.9-2.3,3.4-3.1c1.5-0.7,3.6-1.3,6.3-1.9c3.7-0.7,6.3-1.3,7.7-2v-0.8c0-1.5-0.4-2.6-1.1-3.3
		c-0.8-0.7-2.2-1-4.3-1c-1.4,0-2.5,0.3-3.3,0.8C191.5,23,190.9,24,190.4,25.4z M201,31.8c-1,0.3-2.6,0.7-4.8,1.2
		c-2.2,0.5-3.7,0.9-4.3,1.4c-1,0.7-1.6,1.7-1.6,2.8c0,1.1,0.4,2.1,1.2,2.9c0.8,0.8,1.9,1.2,3.2,1.2c1.4,0,2.8-0.5,4.1-1.4
		c1-0.7,1.6-1.6,1.9-2.6c0.2-0.7,0.3-2,0.3-3.9V31.8z"/>
	<path d="M244,46.2h-8V30.9c0-3.2-0.2-5.3-0.5-6.3c-0.3-1-0.9-1.7-1.7-2.2c-0.8-0.5-1.7-0.8-2.8-0.8c-1.4,0-2.6,0.4-3.7,1.1
		c-1.1,0.8-1.8,1.8-2.2,3c-0.4,1.2-0.6,3.5-0.6,6.9v13.6h-8V16.2h7.4v4.4c2.6-3.4,5.9-5.1,9.9-5.1c1.8,0,3.4,0.3,4.8,0.9
		c1.5,0.6,2.6,1.4,3.3,2.4c0.7,1,1.3,2.1,1.6,3.3c0.3,1.2,0.4,3,0.4,5.3V46.2z"/>
	<path d="M279.6,46.2h-7.4v-4.4c-1.2,1.7-2.7,3-4.3,3.8c-1.7,0.8-3.4,1.3-5.1,1.3c-3.5,0-6.4-1.4-8.9-4.2c-2.5-2.8-3.7-6.7-3.7-11.6
		c0-5.1,1.2-9,3.6-11.6c2.4-2.7,5.4-4,9.1-4c3.4,0,6.3,1.4,8.7,4.2V4.8h8V46.2z M258.4,30.6c0,3.2,0.4,5.5,1.3,7
		c1.3,2.1,3.1,3.1,5.4,3.1c1.8,0,3.4-0.8,4.7-2.3c1.3-1.6,1.9-3.9,1.9-7c0-3.5-0.6-5.9-1.9-7.5c-1.2-1.5-2.8-2.3-4.8-2.3
		c-1.9,0-3.5,0.8-4.7,2.2C259,25.3,258.4,27.6,258.4,30.6z"/>
</g>
</svg>
