<?xml version="1.0" ?><svg style="enable-background:new 0 0 64 64;" version="1.1" viewBox="0 0 64 64" xml:space="preserve" xmlns="http://www.w3.org/2000/svg" xmlns:xlink="http://www.w3.org/1999/xlink"><style type="text/css">
	.st0{fill:#231F20;}
</style><g id="Guide"/><g id="search"/><g id="price_tag"/><g id="coupon"/><g id="credit_card"/><g id="shipping"/><g id="notification"/><g id="money"/><g id="discount"/><g id="wishlist"/><g id="location"/><g id="shopping_bag_1_"><path class="st0" d="M53,55.7l-4-36c-0.2-1.5-1.6-2.7-3.2-2.7H40v-3.9C40,8.6,36.4,5,32,5s-8,3.6-8,8.1V17h-5.7   c-1.7,0-3.1,1.2-3.2,2.7l-4,36c-0.1,0.8,0.2,1.6,0.7,2.2c0.6,0.7,1.5,1.1,2.5,1.1h35.5c1,0,1.9-0.4,2.5-1.1   C52.8,57.3,53.1,56.5,53,55.7z M26,13.1C26,9.7,28.7,7,32,7s6,2.7,6,6.1V17H26V13.1z M50.8,56.6c-0.2,0.3-0.6,0.4-1,0.4H14.2   c-0.4,0-0.8-0.2-1-0.4c-0.1-0.1-0.3-0.4-0.2-0.7l4-36c0.1-0.5,0.6-0.9,1.2-0.9H24v7c0,0.6,0.4,1,1,1s1-0.4,1-1v-7h12v7   c0,0.6,0.4,1,1,1s1-0.4,1-1v-7h5.7c0.6,0,1.2,0.4,1.2,0.9l4,36C51,56.2,50.9,56.4,50.8,56.6z"/></g><g id="calculator"/><g id="mobile_ecommerce"/><g id="koin"/><g id="setting"/><g id="online_shop"/><g id="return"/><g id="box"/><g id="internet"/><g id="info"/><g id="gift"/><g id="basket_1_"/><g id="calender"/><g id="store"/><g id="wallet"/></svg>