<?xml version="1.0" ?><svg height="48" viewBox="0 0 48 48" width="48" xmlns="http://www.w3.org/2000/svg"><defs><style>.cls-1{fill:#35dc86;}.cls-2{fill:#f1f2f2;}</style></defs><title/><g data-name="7-Line" id="_7-Line"><g data-name="&lt;Group&gt;" id="_Group_"><path class="cls-1" d="M24,1C36.7,1,47,9.95,47,21c0,15-20,26-20,26V40.83A26.87,26.87,0,0,1,24,41C11.3,41,1,32.05,1,21S11.3,1,24,1Z"/></g><path class="cls-2" d="M38,22a1,1,0,0,0,0-2H34V17h4a1,1,0,0,0,0-2H33a1,1,0,0,0-1,1V26a1,1,0,0,0,1,1h5a1,1,0,0,0,0-2H34V22Z"/><path class="cls-2" d="M15,27H10a1,1,0,0,1-1-1V16a1,1,0,0,1,2,0v9h4a1,1,0,0,1,0,2Z"/><path class="cls-2" d="M19,27a1,1,0,0,1-1-1V16a1,1,0,0,1,2,0V26A1,1,0,0,1,19,27Z"/><path class="cls-2" d="M29,27a1,1,0,0,1-.857-.485L24,19.61V26a1,1,0,0,1-2,0V16a1,1,0,0,1,1.857-.515L28,22.39V16a1,1,0,0,1,2,0V26a1,1,0,0,1-.733.964A1.016,1.016,0,0,1,29,27Z"/></g></svg>