<?xml version="1.0" encoding="utf-8"?>
<!-- Generator: Adobe Illustrator 23.1.0, SVG Export Plug-In . SVG Version: 6.00 Build 0)  -->
<svg version="1.1" id="Layer_1" xmlns="http://www.w3.org/2000/svg" xmlns:xlink="http://www.w3.org/1999/xlink" x="0px" y="0px"
	 viewBox="0 0 1191.1 208.9" style="enable-background:new 0 0 1191.1 208.9;" xml:space="preserve">
<style type="text/css">
	.st0{fill:#FFFFFF;}
	.st1{fill-rule:evenodd;clip-rule:evenodd;fill:url(#SVGID_2_);}
	.st2{fill-rule:evenodd;clip-rule:evenodd;fill:url(#SVGID_3_);}
	.st3{fill-rule:evenodd;clip-rule:evenodd;fill:url(#SVGID_4_);}
	.st4{fill-rule:evenodd;clip-rule:evenodd;fill:url(#SVGID_5_);}
	.st5{fill-rule:evenodd;clip-rule:evenodd;fill:url(#SVGID_6_);}
	.st6{fill-rule:evenodd;clip-rule:evenodd;fill:#3498D8;}
	.st7{fill-rule:evenodd;clip-rule:evenodd;fill:#FFFFFF;}
	.st8{clip-path:url(#SVGID_8_);stroke:#000000;stroke-width:2;stroke-miterlimit:10;}
	.st9{clip-path:url(#SVGID_10_);fill:#FFFFFF;}
	.st10{clip-path:url(#SVGID_12_);fill:#FF5F00;}
	.st11{clip-path:url(#SVGID_14_);fill:#EB001B;}
	.st12{clip-path:url(#SVGID_16_);fill:#F79E1B;}
	.st13{clip-path:url(#SVGID_18_);fill:#F79E1B;}
	.st14{fill-rule:evenodd;clip-rule:evenodd;fill:#DFDFE0;}
	.st15{fill-rule:evenodd;clip-rule:evenodd;fill:#F6AB1B;}
	.st16{fill-rule:evenodd;clip-rule:evenodd;fill:#005696;}
</style>
<g transform="matrix(4.16667,0,0,4.16667,0,0)">
	<path class="st0" d="M138.4,40.4c0,5.4-4.3,9.7-9.7,9.7H76V11.8c0-5.4,4.3-9.7,9.7-9.7h52.7V40.4z"/>
	
		<linearGradient id="SVGID_2_" gradientUnits="userSpaceOnUse" x1="148.9456" y1="105.2966" x2="149.4536" y2="105.2966" gradientTransform="matrix(140.4167 0 0 -140.4167 -20796.4551 14814.1895)">
		<stop  offset="0" style="stop-color:#007F49"/>
		<stop  offset="1" style="stop-color:#62BC46"/>
	</linearGradient>
	<path class="st1" d="M121.2,30.6h4c0.1,0,0.4,0,0.5,0c0.8-0.2,1.4-0.8,1.4-1.8c0-0.9-0.6-1.6-1.4-1.8c-0.1,0-0.4,0-0.5,0h-4V30.6z"
		/>
	
		<linearGradient id="SVGID_3_" gradientUnits="userSpaceOnUse" x1="148.9457" y1="105.2781" x2="149.4537" y2="105.2781" gradientTransform="matrix(140.4389 0 0 -140.4389 -20799.7734 14811.2598)">
		<stop  offset="0" style="stop-color:#007F49"/>
		<stop  offset="1" style="stop-color:#62BC46"/>
	</linearGradient>
	<path class="st2" d="M124.8,5.3c-3.8,0-6.9,3.1-6.9,6.9v7.2h9.8c0.2,0,0.5,0,0.7,0c2.2,0.1,3.9,1.2,3.9,3.2c0,1.6-1.1,2.9-3.2,3.2
		V26c2.2,0.2,4,1.4,4,3.3c0,2.1-1.9,3.5-4.4,3.5h-10.7v14.1H128c3.8,0,6.9-3.1,6.9-6.9V5.3H124.8z"/>
	
		<linearGradient id="SVGID_4_" gradientUnits="userSpaceOnUse" x1="148.9455" y1="105.2581" x2="149.4536" y2="105.2581" gradientTransform="matrix(140.4108 0 0 -140.4108 -20795.5645 14802.5889)">
		<stop  offset="0" style="stop-color:#007F49"/>
		<stop  offset="1" style="stop-color:#62BC46"/>
	</linearGradient>
	<path class="st3" d="M126.7,23.2c0-0.9-0.6-1.5-1.4-1.7c-0.1,0-0.3,0-0.4,0h-3.6v3.4h3.6c0.1,0,0.3,0,0.4,0
		C126,24.7,126.7,24.1,126.7,23.2z"/>
	
		<linearGradient id="SVGID_5_" gradientUnits="userSpaceOnUse" x1="149.2091" y1="105.2784" x2="149.7172" y2="105.2784" gradientTransform="matrix(140.1891 0 0 -140.1891 -20837.8477 14784.998)">
		<stop  offset="0" style="stop-color:#323377"/>
		<stop  offset="1" style="stop-color:#0078C1"/>
	</linearGradient>
	<path class="st4" d="M86.4,5.3c-3.8,0-6.9,3.1-6.9,6.9v17.1c1.9,0.9,4,1.6,6,1.6c2.4,0,3.7-1.5,3.7-3.4v-8h6v8
		c0,3.1-1.9,5.7-8.6,5.7c-4,0-7.1-0.9-7.1-0.9v14.6h10.2c3.8,0,6.9-3.1,6.9-6.9V5.3H86.4z"/>
	
		<linearGradient id="SVGID_6_" gradientUnits="userSpaceOnUse" x1="149.0767" y1="105.2783" x2="149.5848" y2="105.2783" gradientTransform="matrix(140.1967 0 0 -140.1967 -20801.2383 14785.791)">
		<stop  offset="0" style="stop-color:#743236"/>
		<stop  offset="1" style="stop-color:#ED1846"/>
	</linearGradient>
	<path class="st5" d="M105.6,5.3c-3.8,0-6.9,3.1-6.9,6.9v9.1c1.8-1.5,4.8-2.4,9.7-2.2c2.6,0.1,5.4,0.8,5.4,0.8v2.9
		c-1.4-0.7-3.1-1.4-5.2-1.5c-3.7-0.3-6,1.5-6,4.8c0,3.2,2.3,5.1,6,4.8c2.2-0.2,3.9-0.8,5.2-1.5v2.9c0,0-2.8,0.7-5.4,0.8
		c-4.9,0.2-8-0.7-9.7-2.2v16h10.2c3.8,0,6.9-3.1,6.9-6.9V5.3H105.6z"/>
</g>
<g id="E-Com">
	<g id="CVC_5_">
	</g>
	<g id="Mastercard_5_">
	</g>
	<g id="Visa_6_">
	</g>
	<g id="Discover">
	</g>
	<g id="Amex_3_">
		<g id="Amex">
			<g>
				<path class="st6" d="M845.9,21.9H617c-9,0-16.4,7.4-16.4,16.4v139c0,9,7.4,16.4,16.4,16.4h228.9c9,0,16.4-7.4,16.4-16.4v-139
					C862.3,29.3,854.9,21.9,845.9,21.9z"/>
			</g>
		</g>
		<g id="Amex_1_">
			<g>
				<path class="st7" d="M655.4,110.2h13.1L662,93.9L655.4,110.2z M837.8,79.2h-33.5l-8.2,9l-7.4-9h-71.1L711,93.9l-6.5-14.7h-28.6
					v6.5l-3.3-6.5h-24.5l-23.7,57.2H653l3.3-9h8.2l3.3,9h31.9v-6.5l2.5,6.5h16.4l2.5-7.4v7.4h65.4l8.2-9l7.4,9h33.5L814,107.8
					L837.8,79.2z M738.8,128.2h-9V96.3l-13.9,31.9h-8.2l-13.9-31.9v31.9h-18.8l-3.3-9h-19.6l-3.3,9h-10.6l17.2-40.9h13.9l15.5,38.4
					V87.4h15.5l12.3,27.8l11.4-27.8h15.5v40.9H738.8z M819.8,128.2h-12.3l-10.6-13.9l-12.3,13.9h-36.8V87.4h37.6l11.4,13.1
					l12.3-13.1h11.4l-18,20.4L819.8,128.2z M756.8,95.5v7.4h20.4v8.2h-20.4v8.2h22.9l10.6-12.3l-9.8-11.4H756.8z"/>
			</g>
		</g>
	</g>
	<g id="Bitcoin_3_">
	</g>
	<g id="Google_Wallet_5_">
	</g>
	<g id="PayPal_3_">
	</g>
	<g id="Square_Payment_1_">
	</g>
	<g id="Shop_5_">
	</g>
	<g id="Postage">
	</g>
	<g id="Package_7_">
	</g>
	<g id="Discount_3_">
	</g>
	<g id="Earth_3_">
	</g>
	<g id="Barcode_3_">
	</g>
	<g id="Cart_Plus_6_">
	</g>
	<g id="Cart_Minus_6_">
	</g>
	<g id="Cart_4_">
	</g>
	<g id="Receipt_5_">
	</g>
	<g id="Truck_9_">
	</g>
	<g id="Calculator_6_">
	</g>
	<g id="Euro_Symbol">
	</g>
	<g id="Cent_Symbol">
	</g>
	<g id="Dollar_Symbol">
	</g>
	<g id="Pound_Symbol">
	</g>
	<g id="Bank_5_">
	</g>
	<g id="Wallet_3_">
	</g>
	<g id="Coins_6_">
	</g>
	<g id="Bills_6_">
	</g>
	<g id="Dollar_Alt">
	</g>
	<g id="Dollar">
	</g>
</g>
<g>
	<g>
		<g>
			<path id="SVGID_1_" d="M17.3,33.8c0-7.2,5.9-13.1,13.1-13.1h252.4c7.2,0,13.1,5.9,13.1,13.1v148c0,7.2-5.9,13.1-13.1,13.1H30.4
				c-7.2,0-13.1-5.9-13.1-13.1V33.8z"/>
		</g>
		<g>
			<g>
				<defs>
					<path id="SVGID_7_" d="M17.3,33.8c0-7.2,5.9-13.1,13.1-13.1h252.4c7.2,0,13.1,5.9,13.1,13.1v148c0,7.2-5.9,13.1-13.1,13.1H30.4
						c-7.2,0-13.1-5.9-13.1-13.1V33.8z"/>
				</defs>
				<clipPath id="SVGID_8_">
					<use xlink:href="#SVGID_7_"  style="overflow:visible;"/>
				</clipPath>
				<path class="st8" d="M17.3,33.8c0-7.2,5.9-13.1,13.1-13.1h252.4c7.2,0,13.1,5.9,13.1,13.1v148c0,7.2-5.9,13.1-13.1,13.1H30.4
					c-7.2,0-13.1-5.9-13.1-13.1V33.8z"/>
			</g>
		</g>
	</g>
	<g>
		<g>
			<g>
				<defs>
					<path id="SVGID_9_" d="M107.2,168.3V160c0-3-1.7-5-5-5.2c-1.7,0-3.3,0.4-4.6,2.4c-0.9-1.5-2.4-2.4-4.4-2.4
						c-1.3,0-2.8,0.4-3.9,2v-1.5h-2.6v13.1h2.6v-7.4c0-2.2,1.3-3.5,3.3-3.5c2,0,2.8,1.3,2.8,3.5v7.4h2.6v-7.4c0-2.2,1.3-3.5,3.3-3.5
						c2,0,3,1.3,3,3.5v7.4H107.2z M149.4,155.2h-4.8v-3.9H142v3.9h-2.8v2.4h2.8v6.1c0,3,1.1,4.8,4.4,4.8c1.3,0,2.6-0.4,3.5-1.1
						L149,165c-0.9,0.4-1.7,0.7-2.4,0.7c-1.3,0-2-0.9-2-2.2v-6.1h4.8V155.2z M173.6,155c-1.5,0-2.8,0.7-3.5,2v-1.5h-2.6v13.1h2.6
						v-7.4c0-2.2,1.1-3.5,2.8-3.5c0.7,0,1.1,0,1.7,0.4l0.9-2.4C174.9,155,174,155,173.6,155z M137,156.3c-1.3-0.9-3.3-1.3-5.2-1.3
						c-3.3,0-5.2,1.5-5.2,4.1c0,2.2,1.5,3.5,4.4,3.7l1.3,0.2c1.5,0.2,2.4,0.7,2.4,1.5c0,1.1-1.1,1.7-3,1.7s-3.3-0.7-4.4-1.3l-1.3,2
						c2,1.3,4.1,1.7,5.7,1.7c3.7,0,5.9-1.7,5.9-4.1c0-2.2-1.5-3.5-4.4-3.9l-1.3-0.2c-1.3-0.2-2.4-0.4-2.4-1.3s1.1-1.5,2.6-1.5
						c1.7,0,3.3,0.7,4.1,1.1L137,156.3z M176.4,161.8c0,3.9,2.6,6.7,6.7,6.7c2,0,3.3-0.4,4.6-1.5l-1.3-2c-1.1,0.7-2.2,1.1-3.5,1.1
						c-2.2,0-3.9-1.7-3.9-4.4s1.7-4.4,3.9-4.4c1.3,0,2.4,0.4,3.5,1.1l1.3-2c-1.3-1.1-2.6-1.5-4.6-1.5
						C179,155,176.4,157.8,176.4,161.8z M158.1,155c-3.7,0-6.3,2.8-6.3,6.7c0,4.1,2.6,6.7,6.5,6.7c2,0,3.7-0.4,5.2-1.7l-1.3-2
						c-1.1,0.9-2.4,1.3-3.7,1.3c-1.7,0-3.7-1.1-3.9-3.3h9.8c0-0.4,0-0.7,0-1.1C164.2,157.6,161.8,155,158.1,155z M158.1,157.4
						c2,0,3.3,1.3,3.5,3.3h-7C154.9,158.7,156.2,157.4,158.1,157.4z M123.1,161.8v-6.5h-2.6v1.5c-0.9-1.1-2.4-2-4.1-2
						c-3.7,0-6.3,2.8-6.3,6.7c0,3.9,2.8,6.7,6.3,6.7c1.7,0,3.3-0.7,4.1-2v1.5h2.6V161.8z M112.4,161.8c0-2.4,1.5-4.4,4.1-4.4
						c2.4,0,3.9,2,3.9,4.4c0,2.6-1.5,4.4-3.9,4.4C114.2,166.1,112.4,164.2,112.4,161.8z M212.8,155c-1.5,0-2.8,0.7-3.5,2v-1.5h-2.6
						v13.1h2.6v-7.4c0-2.2,1.1-3.5,2.8-3.5c0.7,0,1.1,0,1.7,0.4l0.9-2.4C214.1,155,213.2,155,212.8,155z M233.7,166.3
						c0.2,0,0.4,0,0.4,0c0.2,0,0.2,0.2,0.4,0.2c0.2,0.2,0.2,0.2,0.2,0.4s0,0.2,0,0.4s0,0.4,0,0.4c0,0.2-0.2,0.2-0.2,0.4
						c-0.2,0.2-0.2,0.2-0.4,0.2s-0.4,0-0.4,0c-0.2,0-0.4,0-0.4,0c-0.2,0-0.2-0.2-0.4-0.2c-0.2-0.2-0.2-0.2-0.2-0.4
						c0-0.2,0-0.2,0-0.4s0-0.4,0-0.4c0-0.2,0.2-0.2,0.2-0.4c0.2-0.2,0.2-0.2,0.4-0.2C233.2,166.3,233.4,166.3,233.7,166.3z
						 M233.7,168.7c0.2,0,0.2,0,0.4,0s0.2-0.2,0.2-0.2l0.2-0.2c0-0.2,0-0.2,0-0.4c0-0.2,0-0.2,0-0.4s-0.2-0.2-0.2-0.2l-0.2-0.2
						c-0.2,0-0.2,0-0.4,0s-0.2,0-0.4,0s-0.2,0.2-0.2,0.2l-0.2,0.2c0,0.2,0,0.2,0,0.4c0,0.2,0,0.2,0,0.4s0.2,0.2,0.2,0.2l0.2,0.2
						C233.4,168.7,233.4,168.7,233.7,168.7z M233.7,167c0.2,0,0.2,0,0.4,0l0.2,0.2v0.2c0,0-0.2,0-0.2,0.2l0.4,0.4h-0.2l-0.4-0.4
						h-0.2v0.4h-0.2v-1.3h0.2V167z M233.4,167.2L233.4,167.2L233.4,167.2l0.4,0.2c0,0,0,0,0-0.2c0,0,0,0,0-0.2
						C233.9,167,233.9,167,233.4,167.2L233.4,167.2L233.4,167.2z M202.8,161.8v-6.5h-2.6v1.5c-0.9-1.1-2.4-2-4.1-2
						c-3.7,0-6.3,2.8-6.3,6.7c0,3.9,2.8,6.7,6.3,6.7c1.7,0,3.3-0.7,4.1-2v1.5h2.6V161.8z M192.3,161.8c0-2.4,1.5-4.4,4.1-4.4
						c2.4,0,3.9,2,3.9,4.4c0,2.6-1.5,4.4-3.9,4.4C193.8,166.1,192.3,164.2,192.3,161.8z M228.9,161.8V150h-2.6v6.7
						c-0.9-1.1-2.4-2-4.1-2c-3.7,0-6.3,2.8-6.3,6.7c0,3.9,2.8,6.7,6.3,6.7c1.7,0,3.3-0.7,4.1-2v1.5h2.6V161.8z M218.4,161.8
						c0-2.4,1.5-4.4,4.1-4.4c2.4,0,3.9,2,3.9,4.4c0,2.6-1.5,4.4-3.9,4.4C220,166.1,218.4,164.2,218.4,161.8z"/>
				</defs>
				<clipPath id="SVGID_10_">
					<use xlink:href="#SVGID_9_"  style="overflow:visible;"/>
				</clipPath>
				<rect x="75.9" y="139.1" class="st9" width="170" height="40.7"/>
			</g>
		</g>
	</g>
	<g>
		<g>
			<g>
				<defs>
					<rect id="SVGID_11_" x="134" y="56.6" width="47" height="76.8"/>
				</defs>
				<clipPath id="SVGID_12_">
					<use xlink:href="#SVGID_11_"  style="overflow:visible;"/>
				</clipPath>
				<rect x="123.1" y="45.8" class="st10" width="68.8" height="98.6"/>
			</g>
		</g>
	</g>
	<g>
		<g>
			<g>
				<defs>
					<path id="SVGID_13_" d="M139,94.9c0-15.7,7.4-29.4,18.7-38.3c-8.3-6.5-18.7-10.4-30.2-10.4c-27,0-48.7,21.8-48.7,48.7
						s21.8,48.7,48.7,48.7c11.3,0,21.8-3.9,30.2-10.4C146.2,124.3,139,110.4,139,94.9"/>
				</defs>
				<clipPath id="SVGID_14_">
					<use xlink:href="#SVGID_13_"  style="overflow:visible;"/>
				</clipPath>
				<rect x="67.6" y="35.3" class="st11" width="100.8" height="119.5"/>
			</g>
		</g>
	</g>
	<g>
		<g>
			<g>
				<defs>
					<path id="SVGID_15_" d="M231.9,125.2v-1.5h0.7v-0.2h-1.5v0.2h0.7L231.9,125.2L231.9,125.2z M235,125.2v-2h-0.4l-0.7,1.3
						l-0.7-1.3h-0.4v2h0.4v-1.5l0.4,1.3h0.4l0.4-1.3v1.5H235z"/>
				</defs>
				<clipPath id="SVGID_16_">
					<use xlink:href="#SVGID_15_"  style="overflow:visible;"/>
				</clipPath>
				<rect x="220" y="112.4" class="st12" width="25.9" height="23.7"/>
			</g>
		</g>
	</g>
	<g>
		<g>
			<g>
				<defs>
					<path id="SVGID_17_" d="M236.5,94.9c0,27-21.8,48.7-48.7,48.7c-11.3,0-21.8-3.9-30.2-10.4c11.3-8.9,18.7-22.9,18.7-38.3
						c0-15.7-7.4-29.4-18.7-38.3c8.3-6.5,18.7-10.4,30.2-10.4C214.7,46.2,236.5,68,236.5,94.9"/>
				</defs>
				<clipPath id="SVGID_18_">
					<use xlink:href="#SVGID_17_"  style="overflow:visible;"/>
				</clipPath>
				<rect x="146.6" y="35.3" class="st13" width="100.8" height="119.5"/>
			</g>
		</g>
	</g>
</g>
<g>
	<path class="st14" d="M1162.8,21.6H913.3c-4.9,0-7.9,0.7-9.6,2.3c-1.4,1.8-2.1,4.6-2.1,8.9v16v12.9v92v13.5v15.4
		c0,7.6,4,11.6,11.7,11.6h249.5c8.1,0,12.2-4,12.2-11.6v-15.4v-13.5v-92V48.7v-16C1175,25.2,1170.9,21.6,1162.8,21.6z"/>
	<g>
		<path class="st15" d="M953.9,162.2c40.3-17.3,96.9-32.9,171.8-17.2l0.8-19c-79-8.6-135.7,16.6-172.6,34.4V162.2L953.9,162.2z"/>
		<polygon class="st16" points="996,112.2 1013.5,54.6 1029.1,54.6 1011.6,112.2 		"/>
		<path class="st16" d="M989.1,54.6L975,79c-3.6,6.4-5.7,9.6-6.7,13.7h-0.2c0.3-5.1-0.5-11.4-0.5-14.9l-1.5-23.1h-26.2l-0.3,1.5
			c6.7,0,10.7,3.4,11.9,10.3l5.1,45.7h16.1l32.7-57.6L989.1,54.6L989.1,54.6z"/>
		<path class="st16" d="M1110.3,112.2l-0.4-8.5h-19.5l-4,8.6h-16.9l30.7-57.5h20.8l5.2,57.5L1110.3,112.2L1110.3,112.2z
			 M1108.5,78.2c-0.2-4.3-0.3-10-0.1-13.5h-0.2c-1,2.9-5,11.4-6.8,15.7l-5.8,12.6h13.7L1108.5,78.2L1108.5,78.2z"/>
		<path class="st16" d="M1045.4,113.8c-11,0-18.3-3.5-23.5-6.6l7.4-11.3c4.7,2.6,8.3,5.7,16.8,5.7c2.7,0,5.3-0.7,6.8-3.3
			c2.2-3.7-0.5-5.8-6.6-9.2l-3-2c-9-6.2-12.9-12-8.7-22.3c2.7-6.6,9.9-11.5,21.7-11.5c8.2,0,15.8,3.5,20.3,7l-8.5,10
			c-4.4-3.5-8-5.3-12.1-5.3c-3.3,0-5.8,1.3-6.7,3c-1.6,3.2,0.5,5.4,5.3,8.3l3.6,2.3c10.9,6.9,13.6,14.1,10.8,20.9
			C1064.3,111.2,1055.1,113.8,1045.4,113.8L1045.4,113.8z"/>
		<path class="st16" d="M1130.4,63.5h-1v-6.2h2.3c1.5,0,2.3,0.5,2.3,1.8c0,1.1-0.7,1.6-1.6,1.7l1.8,2.7h-1.2l-1.6-2.7h-1
			L1130.4,63.5L1130.4,63.5z M1131.5,60c0.7,0,1.4-0.1,1.4-1c0-0.7-0.7-0.9-1.3-0.9h-1.2V60L1131.5,60L1131.5,60z M1131.5,65.9
			c-3.3,0-5.6-2.4-5.6-5.7c0-3.4,2.6-5.7,5.6-5.7c2.9,0,5.5,2.2,5.5,5.7S1134.4,65.9,1131.5,65.9L1131.5,65.9z M1131.5,55.6
			c-2.5,0-4.3,1.9-4.3,4.6c0,2.6,1.7,4.6,4.3,4.6c2.4,0,4.3-1.9,4.3-4.6S1133.9,55.6,1131.5,55.6L1131.5,55.6z"/>
	</g>
</g>
</svg>
