<svg width="77.999" height="78" xmlns="http://www.w3.org/2000/svg">

 <g>
  <title>background</title>
  <rect fill="none" id="canvas_background" height="402" width="582" y="-1" x="-1"/>
 </g>
 <g>
  <title>Layer 1</title>
  <path fill="#7f7f7f" id="svg_2" d="m71.807,6.191c-7.215,-7.216 -12.629,-6.133 -12.629,-6.133l-25.26,25.259l-28.869,28.868l-5.049,23.815l23.812,-5.051l28.869,-28.869l25.26,-25.257c0,0.001 1.084,-5.414 -6.134,-12.632zm-49.412,63.895l-8.117,1.748c-0.785,-1.467 -1.727,-2.932 -3.455,-4.659c-1.727,-1.727 -3.193,-2.669 -4.658,-3.456l1.75,-8.116l2.346,-2.348c0,0 4.418,0.088 9.404,5.078c4.988,4.987 5.078,9.407 5.078,9.407l-2.348,2.346z"/>
 </g>
</svg>