<?xml version="1.0" encoding="utf-8"?>
<!-- Generator: Adobe Illustrator 23.1.0, SVG Export Plug-In . SVG Version: 6.00 Build 0)  -->
<svg version="1.1"
	 id="Layer_1" xmlns:cc="http://creativecommons.org/ns#" xmlns:dc="http://purl.org/dc/elements/1.1/" xmlns:inkscape="http://www.inkscape.org/namespaces/inkscape" xmlns:rdf="http://www.w3.org/1999/02/22-rdf-syntax-ns#" xmlns:sodipodi="http://sodipodi.sourceforge.net/DTD/sodipodi-0.dtd" xmlns:svg="http://www.w3.org/2000/svg"
	 xmlns="http://www.w3.org/2000/svg" xmlns:xlink="http://www.w3.org/1999/xlink" x="0px" y="0px" viewBox="0 0 512 512"
	 style="enable-background:new 0 0 512 512;" xml:space="preserve">
<style type="text/css">
	.st0{fill:#FFFFFF;stroke:#3C599B;stroke-width:9.8047;stroke-miterlimit:3.8453;}
	.st1{fill:#3C599B;}
</style>
<g id="g2996" transform="translate(0.32800146,0.07000866)">
	<g id="g2987" transform="matrix(0.98046874,0,0,0.98046874,4.9935963,4.9986352)">
		<path id="path2989" class="st0" d="M511.7,255.9c0,141.4-114.6,256-256,256s-256-114.6-256-256s114.6-256,256-256
			S511.7,114.5,511.7,255.9z"/>
	</g>
	<g id="g2983" transform="translate(889.672,27.929991)">
		<path id="path2989-2" class="st1" d="M-569,178.7h-44.2v-29c0-10.9,7.2-13.4,12.3-13.4s31.2,0,31.2,0V88.4l-43-0.2
			c-47.7,0-58.6,35.7-58.6,58.6v31.9H-699v49.4h27.6c0,63.4,0,139.7,0,139.7h58.1c0,0,0-77.1,0-139.7h39.2L-569,178.7L-569,178.7z"
			/>
	</g>
</g>
<g id="Layer_1_1_">
</g>
</svg>
