<?xml version="1.0" ?><svg id="Layer_1" style="enable-background:new 0 0 100 100;" version="1.1" viewBox="0 0 100 100" xml:space="preserve" xmlns="http://www.w3.org/2000/svg" xmlns:xlink="http://www.w3.org/1999/xlink"><g><path d="M81.4,76.4c-1.3,0-3.6-1.3-8.1-4c-2-1.2-4.8-2.9-5.4-3H24.5c-4,0-7.3-3.2-7.3-7.1V30.7c0-3.9,3.3-7.1,7.3-7.1H68   c4,0,7.3,3.2,7.3,7.1v31.6c0.1,0.6,1.9,3.2,3.2,5.1c3.9,5.6,5.1,7.5,4,8.6C82.2,76.2,81.9,76.4,81.4,76.4z M24.5,25.6   c-2.9,0-5.3,2.3-5.3,5.1v31.6c0,2.8,2.4,5.1,5.3,5.1H68c1,0,2.6,1,6.5,3.3c1.8,1.1,4.6,2.8,6.1,3.5c-0.7-1.4-2.5-4-3.7-5.6   c-2.6-3.8-3.6-5.3-3.6-6.2V30.7c0-2.8-2.4-5.1-5.3-5.1H24.5z"/></g><g><path d="M60.3,39H31.7c-0.6,0-1-0.4-1-1s0.4-1,1-1h28.7c0.6,0,1,0.4,1,1S60.9,39,60.3,39z"/></g><g><path d="M60.3,45H31.7c-0.6,0-1-0.4-1-1s0.4-1,1-1h28.7c0.6,0,1,0.4,1,1S60.9,45,60.3,45z"/></g><g><path d="M60.3,51H31.7c-0.6,0-1-0.4-1-1s0.4-1,1-1h28.7c0.6,0,1,0.4,1,1S60.9,51,60.3,51z"/></g></svg>