<?xml version="1.0" ?><svg data-name="Layer 1" id="Layer_1" viewBox="0 0 512 512" xmlns="http://www.w3.org/2000/svg"><path d="M150.3,173.89a6,6,0,0,0,6,6H355.67a6,6,0,0,0,0-12.06H156.33A6,6,0,0,0,150.3,173.89Z"/><path d="M355.67,221.68H156.33a6,6,0,0,0,0,12.06H355.67a6,6,0,0,0,0-12.06Z"/><path d="M355.67,275.49H156.33a6,6,0,0,0,0,12.07H355.67a6,6,0,0,0,0-12.07Z"/><path d="M355.67,329.32H156.33a6,6,0,1,0,0,12.06H355.67a6,6,0,0,0,0-12.06Z"/><path d="M282.45,383.14H156.33a6,6,0,1,0,0,12.06H282.45a6,6,0,0,0,0-12.06Z"/><path d="M431.32,116.82c0-.13,0-.26,0-.39l0-.25c0-.11,0-.22,0-.34l-.06-.26c0-.1-.05-.21-.08-.31L431,115a2.83,2.83,0,0,0-.11-.31l-.1-.24a2.64,2.64,0,0,0-.15-.29l-.13-.23a2.09,2.09,0,0,0-.17-.28l-.16-.23-.18-.24-.21-.24-.15-.18L352.37,33.11l0,0-.19-.18-.26-.24,0,0a6.06,6.06,0,0,0-2-1.07l-.2-.06-.36-.09-.38-.06-.2,0-.39,0H86.7a6,6,0,0,0-6,6V474.68a6,6,0,0,0,6,6H425.3a6,6,0,0,0,6-6V117C431.33,116.93,431.32,116.88,431.32,116.82ZM354.07,52.2l57,58.75h-57Zm65.2,416.45H92.73V43.35H342V117a6,6,0,0,0,6,6h71.23Z"/></svg>