<?xml version="1.0" encoding="utf-8"?>
<!-- Generator: Adobe Illustrator 23.1.0, SVG Export Plug-In . SVG Version: 6.00 Build 0)  -->
<svg version="1.1" id="圖層_1" xmlns="http://www.w3.org/2000/svg" xmlns:xlink="http://www.w3.org/1999/xlink" x="0px" y="0px"
	 viewBox="0 0 167.1 61" style="enable-background:new 0 0 167.1 61;" xml:space="preserve">
<style type="text/css">
	.st0{fill-rule:evenodd;clip-rule:evenodd;fill:#019AE0;}
	.st1{fill-rule:evenodd;clip-rule:evenodd;fill:#012D8A;}
	.st2{fill:#019AE0;}
	.st3{fill:#012D8A;}
</style>
<title>Layer 1</title>
<g>
	<path id="svg_6" class="st0" d="M128.8,16c-4,0-7.2,1.1-9.6,1.5l-0.8,6.1c1.2-0.6,5-1.7,8.1-1.8c3.2-0.1,5,0.6,4.4,3.2
		c-9.3,0-15.7,2-17.1,7.9c-1.8,10.5,9.6,10.1,14.2,5.5l-0.6,2.5h8.4l3.6-16.6C141.1,17.6,134.6,15.9,128.8,16L128.8,16z M129.4,33
		c-0.5,2.2-2.2,3.2-4.4,3.2c-1.8,0.1-3.5-1.5-2.3-3.4c0.9-1.7,3.5-2,5.1-2c0.6,0,1.4,0,2,0C129.6,31.5,129.5,32.2,129.4,33z"/>
	<polygon id="svg_7" class="st0" points="146.8,9.8 139.8,41.6 148.3,41.6 155.4,9.8 	"/>
	<path id="svg_8" class="st0" d="M107.7,9.8H92.1l-6.9,31.7h9.1l2.3-10.5h6.5c6.3,0,11.6-3.9,13-10.5
		C117.6,13.3,112.1,9.8,107.7,9.8L107.7,9.8z M107.4,20.7c-0.6,2.4-2.9,4.4-5.4,4.4h-4.1l1.8-8.7h4.4
		C106.6,16.3,108,18.3,107.4,20.7L107.4,20.7z"/>
	<path id="svg_10" class="st1" d="M47.3,16.3c-4,0-7,1.1-9.3,1.5l-0.8,6.1c1.1-0.6,4.9-1.7,7.9-1.8c3.1-0.1,5,0.6,4.4,3.2
		c-9.3,0-15.6,2-16.8,7.9c-1.8,10.5,9.5,10.1,13.9,5.5l-0.5,2.6h8.4l3.6-16.6C59.5,18,53,16.2,47.3,16.3L47.3,16.3z M47.9,33.4
		c-0.5,2.2-2.3,3.2-4.4,3.2c-1.8,0.1-3.4-1.5-2.2-3.4c0.9-1.7,3.5-2,5-2c0.8,0,1.4,0,2.1,0C48.1,31.9,47.9,32.5,47.9,33.4z"/>
	<polygon id="svg_11" class="st1" points="61.6,16.8 70,16.8 71.4,31.6 79.5,16.8 88.1,16.8 68.3,52.2 58.9,52.2 65.1,41.8 	"/>
	<path id="svg_12" class="st1" d="M26.4,9.8H10.8l-7,31.7h9.2l2.2-10.5h6.6c6.3,0,11.5-3.9,12.9-10.5C36.3,13.3,31,9.8,26.4,9.8z
		 M26.1,20.7C25.6,23,23.3,25,20.9,25h-4.3l2-8.7H23C25.3,16.3,26.8,18.3,26.1,20.7z"/>
	<path id="svg_14" class="st2" d="M157.1,13.9v-3.8h-1.4V9.6h3.4v0.6h-1.4v3.8H157.1L157.1,13.9z"/>
	<path id="svg_15" class="st2" d="M159.7,13.9V9.6h0.8l1.1,3.1c0.1,0.3,0.2,0.5,0.2,0.6c0-0.2,0.1-0.4,0.2-0.6l1.1-2.9h0.8v4.3h-0.6
		v-3.7l-1.2,3.6h-0.6l-1.2-3.6V14L159.7,13.9L159.7,13.9L159.7,13.9z"/>
</g>
<path class="st3" d="M-1.6-94.2h12.6c2.7,0,4.8,0.7,6.2,2c1.4,1.3,2,3.2,2,5.6c0,2.5-0.7,4.4-2.2,5.8c-1.5,1.4-3.8,2.1-6.8,2.1H6
	v9.1h-7.6V-94.2z M6-83.7h1.9c1.5,0,2.5-0.3,3.1-0.8c0.6-0.5,0.9-1.2,0.9-1.9c0-0.8-0.3-1.4-0.8-2c-0.5-0.5-1.5-0.8-2.9-0.8H6V-83.7
	z"/>
<path class="st3" d="M28.2-81.7l-6.5-0.7c0.2-1.1,0.6-2,1.1-2.7c0.5-0.7,1.1-1.2,2-1.7c0.6-0.3,1.5-0.6,2.6-0.8s2.3-0.3,3.5-0.3
	c2,0,3.7,0.1,4.9,0.3c1.2,0.2,2.3,0.7,3.1,1.4c0.6,0.5,1,1.2,1.4,2.1c0.3,0.9,0.5,1.8,0.5,2.6v7.8c0,0.8,0.1,1.5,0.2,2
	c0.1,0.5,0.3,1.1,0.7,1.8h-6.4c-0.3-0.5-0.4-0.8-0.5-1c-0.1-0.2-0.2-0.6-0.2-1.1c-0.9,0.9-1.8,1.5-2.7,1.8c-1.2,0.5-2.6,0.7-4.2,0.7
	c-2.1,0-3.7-0.5-4.8-1.5c-1.1-1-1.6-2.2-1.6-3.6c0-1.3,0.4-2.5,1.2-3.3c0.8-0.9,2.2-1.5,4.4-1.9c2.5-0.5,4.2-0.9,5-1.1
	c0.8-0.2,1.6-0.5,2.4-0.8c0-0.8-0.2-1.4-0.5-1.8s-1-0.5-1.8-0.5c-1.1,0-1.9,0.2-2.5,0.5C28.9-83,28.5-82.5,28.2-81.7z M34.1-78.1
	c-0.9,0.3-1.9,0.6-2.9,0.9c-1.4,0.4-2.3,0.7-2.6,1.1c-0.4,0.4-0.6,0.8-0.6,1.3c0,0.5,0.2,1,0.6,1.3c0.4,0.3,0.9,0.5,1.6,0.5
	c0.8,0,1.5-0.2,2.1-0.6c0.7-0.4,1.1-0.8,1.4-1.3c0.3-0.5,0.4-1.2,0.4-2.1V-78.1z"/>
<path class="st3" d="M42.9-87.4h7.2l3.7,11.8l3.4-11.8h6.7l-7,18.9c-0.8,2.2-1.6,3.6-2.5,4.4c-1.2,1.1-3,1.6-5.4,1.6
	c-1,0-2.5-0.1-4.5-0.4l-0.5-4.7c1,0.3,2.1,0.5,3.3,0.5c0.8,0,1.4-0.2,1.9-0.6c0.5-0.4,0.9-1,1.3-2L42.9-87.4z"/>
<path class="st3" d="M71.6-86.5h5.9v2.7c0.9-1.1,1.8-1.9,2.7-2.3s2-0.7,3.3-0.7c1.7,0,3.1,0.5,4.1,1.6s1.5,2.6,1.5,4.8v10.4h-6.3v-9
	c0-1-0.2-1.8-0.6-2.2S81.2-82,80.5-82c-0.8,0-1.4,0.3-1.9,0.9c-0.5,0.6-0.7,1.6-0.7,3.1v7.9h-6.3V-86.5z"/>
<path class="st3" d="M92-78.3c0-2.5,0.8-4.6,2.5-6.2c1.7-1.6,4-2.4,6.9-2.4c3.3,0,5.8,1,7.5,2.9c1.4,1.5,2,3.4,2,5.7
	c0,2.5-0.8,4.6-2.5,6.2s-4,2.4-7,2.4c-2.6,0-4.8-0.7-6.4-2C93-73.4,92-75.6,92-78.3z M98.3-78.3c0,1.5,0.3,2.5,0.9,3.3
	c0.6,0.7,1.3,1.1,2.2,1.1c0.9,0,1.7-0.3,2.2-1s0.9-1.8,0.9-3.3c0-1.4-0.3-2.5-0.9-3.2c-0.6-0.7-1.3-1-2.2-1c-0.9,0-1.7,0.4-2.3,1.1
	C98.6-80.8,98.3-79.7,98.3-78.3z"/>
<path class="st3" d="M111.5-86.5h6.1l2.6,10.3l3.3-10.3h5.7l3.5,10.4l2.6-10.4h6.1l-6.1,16.4h-5.6l-3.3-9.9l-3.2,9.9h-5.6
	L111.5-86.5z"/>
<text transform="matrix(1 0 0 1 116.1204 -46.2431)" class="st3" style="font-family:'Arial-Black'; font-size:15.1011px;">with</text>
</svg>
