<?xml version="1.0" ?><!DOCTYPE svg  PUBLIC '-//W3C//DTD SVG 1.1//EN'  'http://www.w3.org/Graphics/SVG/1.1/DTD/svg11.dtd'><svg enable-background="new 0 0 512 512" height="512px" id="printer" version="1.1" viewBox="0 0 512 512" width="512px" xml:space="preserve" xmlns="http://www.w3.org/2000/svg" xmlns:xlink="http://www.w3.org/1999/xlink"><g><path d="M379.217,249.111c-8.842,0-16.035-7.193-16.035-16.035s7.193-16.035,16.035-16.035s16.035,7.193,16.035,16.035   S388.059,249.111,379.217,249.111z M379.217,225.041c-4.432,0-8.035,3.604-8.035,8.035s3.604,8.035,8.035,8.035   c4.43,0,8.035-3.604,8.035-8.035S383.646,225.041,379.217,225.041z"/><path d="M343.684,249.111c-8.842,0-16.035-7.193-16.035-16.035s7.193-16.035,16.035-16.035s16.035,7.193,16.035,16.035   S352.525,249.111,343.684,249.111z M343.684,225.041c-4.43,0-8.035,3.604-8.035,8.035s3.605,8.035,8.035,8.035   c4.432,0,8.035-3.604,8.035-8.035S348.115,225.041,343.684,225.041z"/><path d="M352.862,99.053c0-0.811-0.259-1.553-0.673-2.183c-0.01-0.017-0.02-0.034-0.031-0.05c-0.127-0.188-0.27-0.358-0.426-0.521   c-0.023-0.023-0.039-0.051-0.062-0.074l-46.894-46.893c-0.171-0.17-0.357-0.317-0.551-0.452c-0.057-0.04-0.117-0.074-0.176-0.11   c-0.148-0.092-0.3-0.173-0.457-0.244c-0.064-0.029-0.127-0.059-0.193-0.084c-0.21-0.083-0.425-0.151-0.645-0.196   c-0.01-0.001-0.018-0.005-0.027-0.007c-0.229-0.045-0.463-0.064-0.697-0.069c-0.027,0-0.055-0.008-0.082-0.008H178.406   c-10.661,0-19.334,8.674-19.334,19.334v119.161c0,2.209,1.791,4,4,4h185.77c2.209,0,4-1.791,4-4V99.252   C352.846,99.185,352.862,99.121,352.862,99.053z M305.949,61.817l16.617,16.619l16.619,16.618h-27.324   c-3.26,0-5.912-2.652-5.912-5.913V61.817z M167.072,182.655V67.494c0-6.25,5.084-11.334,11.334-11.334h119.543v32.98   c0,7.671,6.24,13.913,13.912,13.913h32.98v79.602H167.072z"/><path d="M360.305,329.93H152.842c-2.532,0-4.585-2.053-4.585-4.585c0-2.531,2.053-4.585,4.585-4.585h207.462   c2.531,0,4.584,2.054,4.584,4.585C364.889,327.877,362.836,329.93,360.305,329.93z"/><path d="M393.051,182.655H118.95c-17.646,0-32.002,14.356-32.002,32.003v126.241c0,17.646,14.356,32.002,32.002,32.002h40.208   v70.521c0,5.454,2.124,10.582,5.981,14.438c3.857,3.857,8.984,5.98,14.438,5.98H332.52c11.252,0,20.412-9.154,20.419-20.406   l0.046-70.533h40.066c17.646,0,32.002-14.356,32.002-32.002V214.658C425.053,197.011,410.696,182.655,393.051,182.655z    M344.938,443.429c-0.005,6.843-5.575,12.411-12.419,12.411H179.577c-3.317,0-6.436-1.291-8.781-3.637s-3.638-5.465-3.638-8.782   V329.346h177.854L344.938,443.429z M417.053,340.898c0,13.234-10.768,24.002-24.002,24.002h-40.063l0.025-39.553   c0.001-1.061-0.42-2.079-1.17-2.83c-0.75-0.75-1.768-1.172-2.83-1.172H163.158c-2.209,0-4,1.791-4,4V364.9H118.95   c-13.235,0-24.002-10.768-24.002-24.002v-59.693h322.105V340.898z M417.053,273.205H94.947v-58.547   c0-13.235,10.768-24.003,24.002-24.003h274.101c13.234,0,24.002,10.768,24.002,24.003V273.205z"/><path d="M316.795,373.485H196.352c-2.506,0-4.539-2.032-4.539-4.539v-0.091c0-2.508,2.032-4.539,4.539-4.539h120.443   c2.506,0,4.539,2.031,4.539,4.539v0.091C321.334,371.453,319.301,373.485,316.795,373.485z"/><path d="M316.795,396.409H196.352c-2.506,0-4.539-2.032-4.539-4.538v-0.092c0-2.508,2.032-4.539,4.539-4.539h120.443   c2.506,0,4.539,2.031,4.539,4.539v0.092C321.334,394.377,319.301,396.409,316.795,396.409z"/><path d="M316.795,419.333H196.352c-2.506,0-4.539-2.032-4.539-4.538v-0.092c0-2.507,2.032-4.539,4.539-4.539h120.443   c2.506,0,4.539,2.032,4.539,4.539v0.092C321.334,417.301,319.301,419.333,316.795,419.333z"/></g></svg>