<?xml version="1.0" ?><!DOCTYPE svg  PUBLIC '-//W3C//DTD SVG 1.1//EN'  'http://www.w3.org/Graphics/SVG/1.1/DTD/svg11.dtd'><svg enable-background="new 0 0 96 96" height="96px" id="Layer_1" version="1.1" viewBox="0 0 96 96" width="96px" xml:space="preserve" xmlns="http://www.w3.org/2000/svg" xmlns:xlink="http://www.w3.org/1999/xlink"><g><path d="M59.16,34.314c0,6.162-4.996,11.16-11.16,11.16   c-3.322,0-6.307-1.453-8.351-3.757c-1.748-1.97-2.81-4.563-2.81-7.403c0-6.164,4.997-11.161,11.16-11.161   C54.164,23.153,59.16,28.15,59.16,34.314z" fill="none" stroke="#000000" stroke-miterlimit="10" stroke-width="2"/><path d="   M67.07,63.461c-0.077-0.156-0.156-0.312-0.236-0.466C63.281,56.221,56.181,51.597,48,51.597c-11.735,0-21.25,9.515-21.25,21.25   h42.5c0-2.035-0.286-4.006-0.82-5.869" fill="none" stroke="#000000" stroke-linecap="round" stroke-linejoin="round" stroke-miterlimit="10" stroke-width="2"/></g></svg>